<svg xmlns="http://www.w3.org/2000/svg" viewBox="0 0 500 100" >
  <path d="M92.475 18.308l-2.869-8.676-6.407-4.563-12.279 7.886-0.049-0.079-7.224-3.309L50 7.024v1.697l12.875 2.869 6.578 3.358L83.78 37.895l4.654 12.83-5.34 19.302-15.053 8.891-4.454 1.558 3.281-8.75v-5.929l5.873 0.095 4.407-4.06 0.278-8.71-2.868-2.835-6.087-8.327-6.795 2.514-1.092 0.539-0.709 9.33-4.193-1.569L50 52.335h-0.004l-5.296 0.471-4.577 1.558-0.71-9.352-1.092-0.539-6.795-2.514-6.088 8.327-2.868 2.835 0.28 8.71 4.409 4.06 5.871-0.095v5.929l3.282 8.75-4.453-1.558-15.054-8.891-5.34-19.302 4.655-12.83 14.327-22.945 6.577-3.358L50 8.722V7.024L36.352 9.567l-7.226 3.309-0.048 0.079-11.489-7.886-7.196 4.563-2.868 8.676 1.4 9.867 5.802 8.484-5.278 13.522L14.243 71.7l35.664 23.112v0.119L50 94.87l0.092 0.061v-0.119L85.757 71.7l4.793-21.519-5.279-13.521 5.804-8.484 1.4-9.868zM50 86.662l-5.942-1.35-5.723-5.983 3.933 1.816 5.36-0.243L50 79.499v-8.814l-5.263 0.033-2.855 0.647-2.518-2.31 2.518 5.354 7.515 1.466v1.997l-7.165 1.768-4.131-0.558-0.061-0.063-3.086-7.602-0.21-5.197 5.162-10.24 4.756-2.347 5.337-0.769 0.001-0.062v0.064l5.724 0.735 4.368 2.38 5.162 10.24-0.21 5.197-3.086 7.602-0.061 0.063-4.131 0.558-7.164-1.768v-1.997l7.514-1.466 2.52-5.354-2.52 2.31-2.854-0.647L50 70.686V79.5l2.37 1.403 5.361 0.243 3.932-1.816-5.722 5.983L50 86.662z" fill="#000000" transform="translate(0,0)"/>
  <path d="M32.32-6.59L32.32-3.39Q31.03-2.27 29.46-1.53 27.88-0.78 26.26-0.33 24.63 0.12 23.06 0.31 21.48 0.49 20.21 0.49L20.21 0.49Q16.63 0.49 13.54-0.76 10.45-2 8.18-4.28 5.91-6.57 4.61-9.8 3.32-13.04 3.32-16.99L3.32-16.99Q3.32-20.02 4.08-22.62 4.83-25.22 6.18-27.36 7.52-29.49 9.38-31.15 11.23-32.81 13.43-33.95 15.63-35.08 18.09-35.67 20.56-36.25 23.14-36.25L23.14-36.25Q23.97-36.25 25.02-36.18 26.07-36.11 27.27-35.95 28.47-35.79 29.75-35.53 31.03-35.28 32.35-34.89L32.35-34.89 31.37-30.15 30.88-29.91Q28.34-31.08 26.14-31.52 23.93-31.96 22.31-31.96L22.31-31.96Q19.53-31.96 17.19-30.9 14.84-29.83 13.16-27.98 11.47-26.12 10.53-23.6 9.59-21.07 9.59-18.16L9.59-18.16Q9.59-15.31 10.47-12.74 11.35-10.18 13.05-8.24 14.75-6.3 17.21-5.15 19.68-4 22.88-4L22.88-4Q24.9-4 27.32-4.57 29.74-5.13 32.32-6.59L32.32-6.59ZM45.21 0L40.01 0 40.01-35.77 48.56-35.77 63.77-12.99 66.28-8.28 66.77-8.28 66.45-13.6 66.45-35.77 71.65-35.77 71.65 0 65.96 0 47.68-27.27 45.38-31.79 44.89-31.79 45.21-26.59 45.21 0ZM84.49 0.49L84.49 0.49Q83.64 0.49 82.89 0.16 82.15-0.17 81.6-0.72 81.05-1.27 80.73-2.01 80.41-2.76 80.41-3.59L80.41-3.59Q80.41-4.44 80.74-5.21 81.07-5.98 81.64-6.56 82.2-7.13 82.94-7.46 83.69-7.79 84.54-7.79L84.54-7.79Q85.4-7.79 86.14-7.46 86.88-7.13 87.43-6.56 87.98-5.98 88.3-5.22 88.62-4.47 88.62-3.61L88.62-3.61Q88.62-2.76 88.29-2.01 87.96-1.27 87.4-0.72 86.84-0.17 86.09 0.16 85.35 0.49 84.49 0.49ZM103.61-31.47L103.61 0 97.55 0 97.55-35.77 108.34-35.77Q111.42-35.77 113.95-35.02 116.47-34.28 118.29-32.85 120.11-31.42 121.11-29.35 122.11-27.27 122.11-24.58L122.11-24.58Q122.11-21.7 121.01-19.43 119.91-17.16 118.11-15.59 116.3-14.01 113.98-13.17 111.66-12.33 109.25-12.33L109.25-12.33Q108.93-12.33 108.57-12.35 108.22-12.38 107.73-12.45L107.73-12.45 108.1-16.5Q108.46-16.46 108.78-16.44 109.1-16.43 109.37-16.43L109.37-16.43Q110.83-16.43 112.05-16.92 113.27-17.41 114.16-18.36 115.06-19.31 115.56-20.69 116.06-22.07 116.06-23.88L116.06-23.88Q116.06-25.88 115.47-27.32 114.89-28.76 113.77-29.69 112.66-30.62 111.09-31.04 109.51-31.47 107.54-31.47L107.54-31.47 103.61-31.47ZM128.58 0L128.58-25.88 133.36-25.88 134.19-18.16Q134.54-18.8 134.9-19.47 135.27-20.14 135.63-20.76 136-21.39 136.32-21.9 136.64-22.41 136.86-22.75L136.86-22.75Q137.37-23.51 138.01-24.18 138.66-24.85 139.42-25.33 140.18-25.81 141.05-26.09 141.93-26.37 142.96-26.37L142.96-26.37Q143.67-26.37 144.37-26.2 145.08-26.03 145.57-25.66L145.57-25.66 144.94-20.21Q144.5-20.34 143.91-20.37 143.32-20.41 142.86-20.41L142.86-20.41Q141.3-20.41 140.08-19.96 138.86-19.51 137.87-18.71 136.88-17.92 136.06-16.85 135.24-15.77 134.49-14.53L134.49-14.53 134.49 0 128.58 0ZM161.05 0.49L161.05 0.49Q158 0.49 155.66-0.54 153.33-1.56 151.75-3.31 150.16-5.05 149.34-7.35 148.52-9.64 148.52-12.21L148.52-12.21Q148.52-15.16 149.57-17.74 150.62-20.31 152.51-22.23 154.41-24.15 157.02-25.26 159.63-26.37 162.76-26.37L162.76-26.37Q165.81-26.37 168.15-25.34 170.5-24.32 172.08-22.56 173.67-20.8 174.49-18.49 175.3-16.19 175.3-13.62L175.3-13.62Q175.3-10.64 174.24-8.07 173.18-5.49 171.28-3.59 169.37-1.68 166.76-0.6 164.15 0.49 161.05 0.49ZM162.07-3.74L162.07-3.74Q163.63-3.74 164.93-4.38 166.22-5.03 167.15-6.19 168.08-7.35 168.59-8.96 169.1-10.57 169.1-12.52L169.1-12.52Q169.1-14.43 168.6-16.16 168.1-17.9 167.15-19.23 166.2-20.56 164.83-21.35 163.46-22.14 161.73-22.14L161.73-22.14Q160.14-22.14 158.85-21.48 157.56-20.83 156.64-19.65 155.72-18.48 155.21-16.86 154.7-15.23 154.7-13.31L154.7-13.31Q154.7-11.38 155.2-9.64 155.7-7.91 156.65-6.59 157.6-5.27 158.97-4.5 160.34-3.74 162.07-3.74ZM180.26-1.22L181.31-5.66 181.75-5.93Q182.7-5.42 183.74-5 184.78-4.59 185.8-4.31 186.83-4.03 187.8-3.88 188.78-3.74 189.63-3.74L189.63-3.74Q191.86-3.74 193.11-4.66 194.37-5.59 194.37-7.03L194.37-7.03Q194.37-8.01 193.8-8.64 193.22-9.28 192.28-9.73 191.34-10.18 190.15-10.52 188.95-10.86 187.69-11.24 186.44-11.62 185.24-12.11 184.04-12.6 183.1-13.35 182.16-14.11 181.59-15.2 181.02-16.28 181.02-17.87L181.02-17.87Q181.02-19.65 181.78-21.22 182.55-22.78 183.98-23.91 185.41-25.05 187.45-25.71 189.49-26.37 192.03-26.37L192.03-26.37Q192.66-26.37 193.5-26.32 194.35-26.27 195.26-26.16 196.18-26.05 197.1-25.88 198.03-25.71 198.84-25.44L198.84-25.44 197.76-21.07 197.23-20.75Q196.49-21.12 195.65-21.39 194.81-21.66 193.97-21.81 193.12-21.97 192.33-22.06 191.54-22.14 190.93-22.14L190.93-22.14Q188.78-22.14 187.57-21.29 186.36-20.43 186.36-18.99L186.36-18.99Q186.36-17.99 186.95-17.35 187.53-16.7 188.47-16.25 189.41-15.8 190.63-15.47 191.86-15.14 193.11-14.76 194.37-14.38 195.59-13.89 196.81-13.4 197.75-12.65 198.69-11.89 199.28-10.79 199.86-9.69 199.86-8.08L199.86-8.08Q199.86-6.27 199.08-4.7 198.3-3.13 196.86-1.98 195.42-0.83 193.39-0.17 191.37 0.49 188.9 0.49L188.9 0.49Q186.87 0.49 184.6 0.05 182.33-0.39 180.26-1.22L180.26-1.22ZM212.29-18.46L212.29-4.76Q212.9-4.47 213.59-4.27 214.29-4.08 214.95-3.96 215.61-3.83 216.22-3.78 216.83-3.74 217.27-3.74L217.27-3.74Q219.15-3.74 220.66-4.48 222.17-5.22 223.25-6.51 224.32-7.79 224.9-9.5 225.47-11.21 225.47-13.16L225.47-13.16Q225.47-14.99 224.99-16.58 224.52-18.16 223.66-19.34 222.81-20.51 221.59-21.18 220.37-21.85 218.9-21.85L218.9-21.85Q217.15-21.85 215.45-20.91 213.75-19.97 212.29-18.46L212.29-18.46ZM211.12-25.88L211.99-21.53Q212.87-22.36 213.9-23.22 214.92-24.07 216.11-24.77 217.29-25.46 218.65-25.92 220-26.37 221.54-26.37L221.54-26.37Q223.91-26.37 225.78-25.33 227.64-24.29 228.94-22.57 230.23-20.85 230.93-18.62 231.62-16.38 231.62-14.01L231.62-14.01Q231.62-10.89 230.48-8.23 229.33-5.57 227.35-3.63 225.37-1.68 222.71-0.6 220.05 0.49 217.05 0.49L217.05 0.49Q216.46 0.49 215.82 0.45 215.17 0.42 214.55 0.34 213.92 0.27 213.34 0.16 212.75 0.05 212.29-0.1L212.29-0.1 212.29 13.09 206.38 13.09 206.38-25.88 211.12-25.88ZM259.38-5.32L259.38-2.37Q258.31-1.61 257.06-1.07 255.81-0.54 254.5-0.18 253.18 0.17 251.87 0.33 250.57 0.49 249.39 0.49L249.39 0.49Q246.68 0.49 244.35-0.34 242.02-1.17 240.3-2.78 238.58-4.39 237.6-6.75 236.63-9.11 236.63-12.16L236.63-12.16Q236.63-15.41 237.72-18.04 238.82-20.68 240.67-22.52 242.51-24.37 244.94-25.37 247.37-26.37 250-26.37L250-26.37Q252.2-26.37 254.09-25.65 255.99-24.93 257.37-23.51 258.74-22.09 259.53-19.97 260.31-17.85 260.31-15.04L260.31-15.04Q260.31-14.36 260.25-13.59 260.19-12.82 260.04-12.08L260.04-12.08 242.75-12.08Q242.75-10.11 243.45-8.59 244.15-7.08 245.41-6.07 246.68-5.05 248.47-4.53 250.25-4 252.4-4L252.4-4Q253.01-4 253.83-4.05 254.64-4.1 255.57-4.25 256.5-4.39 257.48-4.65 258.45-4.91 259.38-5.32L259.38-5.32ZM242.75-14.97L254.81-14.97Q254.81-16.75 254.36-18.09 253.91-19.43 253.13-20.34 252.35-21.24 251.31-21.69 250.27-22.14 249.08-22.14L249.08-22.14Q247.73-22.14 246.59-21.61 245.44-21.07 244.58-20.1 243.73-19.14 243.24-17.82 242.75-16.5 242.75-14.97L242.75-14.97ZM285.77-5.32L285.77-2.37Q284.04-0.98 281.91-0.24 279.79 0.49 277.35 0.49L277.35 0.49Q274.61 0.49 272.41-0.43 270.22-1.34 268.68-2.97 267.14-4.59 266.31-6.85 265.48-9.11 265.48-11.82L265.48-11.82Q265.48-15.01 266.6-17.69 267.73-20.36 269.67-22.29 271.61-24.22 274.25-25.29 276.88-26.37 279.91-26.37L279.91-26.37Q280.57-26.37 281.33-26.31 282.08-26.25 282.88-26.12 283.67-26 284.44-25.79 285.21-25.59 285.87-25.29L285.87-25.29 284.82-20.75 284.3-20.51Q283.86-20.83 283.27-21.13 282.67-21.44 281.98-21.66 281.3-21.88 280.57-22.01 279.84-22.14 279.13-22.14L279.13-22.14Q277.57-22.14 276.21-21.53 274.86-20.92 273.84-19.75 272.83-18.58 272.24-16.88 271.66-15.19 271.66-13.04L271.66-13.04Q271.66-10.79 272.29-9.11 272.93-7.42 274.05-6.29 275.17-5.15 276.71-4.58 278.25-4 280.06-4L280.06-4Q281.18-4 282.62-4.27 284.06-4.54 285.77-5.32L285.77-5.32ZM295.17-7.15L295.17-21.66 289.97-21.66 290.4-24.44Q292.33-24.93 293.49-25.54 294.65-26.15 295.42-27.04 296.19-27.93 296.76-29.21 297.34-30.49 298.1-32.32L298.1-32.32 300.93-32.32 300.93-25.88 310.23-25.88 309.18-21.66 301.1-21.66 301.1-8.33Q301.1-7.13 301.44-6.31 301.78-5.49 302.42-4.98 303.05-4.47 303.94-4.24 304.83-4 305.96-4L305.96-4Q307.03-4 308.09-4.2 309.15-4.39 310.11-4.76L310.11-4.76 310.11-1.78Q308.45-0.66 306.55-0.09 304.66 0.49 302.73 0.49L302.73 0.49Q299.05 0.49 297.11-1.51 295.17-3.52 295.17-7.15L295.17-7.15ZM316.77 0L316.77-25.88 322.7-25.88 322.7 0 316.77 0ZM319.72-30.98L319.72-30.98Q318.94-30.98 318.3-31.24 317.65-31.49 317.17-31.93 316.7-32.37 316.44-32.98 316.18-33.59 316.18-34.3L316.18-34.3Q316.18-35.03 316.46-35.66 316.74-36.28 317.25-36.76 317.75-37.23 318.42-37.5 319.09-37.77 319.87-37.77L319.87-37.77Q320.63-37.77 321.26-37.5 321.9-37.23 322.36-36.78 322.82-36.33 323.09-35.71 323.36-35.08 323.36-34.38L323.36-34.38Q323.36-33.64 323.08-33.02 322.8-32.4 322.3-31.95 321.8-31.49 321.14-31.24 320.48-30.98 319.72-30.98ZM330.9 0L330.9-25.88 335.69-25.88 336.52-21.46Q337.37-22.24 338.45-23.11 339.52-23.97 340.79-24.69 342.06-25.42 343.46-25.89 344.87-26.37 346.38-26.37L346.38-26.37Q348.16-26.37 349.62-25.7 351.07-25.02 352.09-23.82 353.12-22.61 353.68-20.92 354.24-19.24 354.24-17.24L354.24-17.24 354.24 0 348.31 0 348.31-16.53Q348.31-17.85 347.94-18.85 347.58-19.85 346.93-20.51 346.28-21.17 345.39-21.51 344.5-21.85 343.48-21.85L343.48-21.85Q341.67-21.85 340.06-20.92 338.45-20 336.81-18.48L336.81-18.48 336.81 0 330.9 0ZM375.41 1.78L369.5 1.78Q368.94 2.1 368.33 2.51 367.72 2.93 367.19 3.43 366.67 3.93 366.32 4.53 365.98 5.13 365.98 5.81L365.98 5.81Q365.98 6.54 366.41 7.18 366.84 7.81 367.68 8.29 368.52 8.76 369.77 9.05 371.01 9.33 372.62 9.33L372.62 9.33Q374.48 9.33 375.92 8.96 377.36 8.59 378.35 7.97 379.34 7.35 379.85 6.54 380.36 5.74 380.36 4.86L380.36 4.86Q380.36 4.08 379.97 3.5 379.58 2.93 378.91 2.54 378.24 2.15 377.34 1.97 376.43 1.78 375.41 1.78L375.41 1.78ZM365.89 1.29L365.89 1.29Q364.2 0.71 363.14-0.26 362.08-1.22 362.08-2.54L362.08-2.54Q362.08-3.34 362.5-4.08 362.93-4.81 363.63-5.47 364.32-6.13 365.2-6.73 366.08-7.32 366.98-7.89L366.98-7.89Q365.47-8.54 364.41-9.45 363.35-10.35 362.68-11.43 362-12.5 361.7-13.7 361.39-14.89 361.39-16.11L361.39-16.11Q361.39-18.46 362.39-20.35 363.4-22.24 365.04-23.58 366.69-24.93 368.8-25.65 370.91-26.37 373.16-26.37L373.16-26.37Q374.85-26.37 376.48-25.95 378.12-25.54 379.24-24.83L379.24-24.83Q380.02-25.27 381.32-25.57 382.61-25.88 384-25.88L384-25.88 388.15-25.88 387.1-21.68 381.85-21.68Q382-21.53 382.29-21.11 382.58-20.68 382.85-20.04 383.12-19.41 383.33-18.59 383.54-17.77 383.54-16.85L383.54-16.85Q383.54-14.79 382.57-13.02 381.61-11.25 380.01-9.95 378.41-8.64 376.35-7.9 374.28-7.15 372.11-7.15L372.11-7.15Q371.65-7.15 371.18-7.19 370.72-7.23 370.23-7.28L370.23-7.28Q369.84-7.03 369.4-6.73 368.96-6.42 368.6-6.07 368.23-5.71 367.99-5.3 367.74-4.88 367.74-4.44L367.74-4.44Q367.74-3.69 368.42-3.22 369.11-2.76 370.3-2.76L370.3-2.76 376.9-2.76Q378.65-2.76 380.28-2.33 381.9-1.9 383.13-1.09 384.37-0.27 385.11 0.92 385.86 2.1 385.86 3.61L385.86 3.61Q385.86 5.3 384.89 7.07 383.93 8.84 382.05 10.29 380.17 11.74 377.41 12.66 374.65 13.57 371.06 13.57L371.06 13.57Q368.77 13.57 366.8 13.17 364.84 12.77 363.38 12.02 361.93 11.28 361.11 10.22 360.29 9.16 360.29 7.84L360.29 7.84Q360.29 6.67 360.91 5.66 361.52 4.66 362.39 3.83 363.27 3 364.23 2.37 365.18 1.73 365.89 1.29ZM366.84-16.89L366.84-16.89Q366.84-15.65 367.26-14.59 367.69-13.53 368.46-12.73 369.23-11.94 370.27-11.5 371.31-11.06 372.55-11.06L372.55-11.06Q373.72-11.06 374.75-11.46 375.77-11.87 376.53-12.6 377.29-13.33 377.73-14.37 378.17-15.41 378.17-16.67L378.17-16.67Q378.17-17.92 377.74-18.97 377.31-20.02 376.54-20.79 375.77-21.56 374.72-22 373.67-22.44 372.43-22.44L372.43-22.44Q371.26-22.44 370.24-22.05 369.23-21.66 368.47-20.94 367.72-20.21 367.28-19.19 366.84-18.16 366.84-16.89Z" fill-rule="evenodd" clip-rule="evenodd" fill="#000000" transform="translate(110,73)" />
</svg>
