<svg xmlns="http://www.w3.org/2000/svg" viewBox="0 0 100 100">
  <path d="M92.475 18.308l-2.869-8.676-6.407-4.563-12.279 7.886-0.049-0.079-7.224-3.309L50 7.024v1.697l12.875 2.869 6.578 3.358L83.78 37.895l4.654 12.83-5.34 19.302-15.053 8.891-4.454 1.558 3.281-8.75v-5.929l5.873 0.095 4.407-4.06 0.278-8.71-2.868-2.835-6.087-8.327-6.795 2.514-1.092 0.539-0.709 9.33-4.193-1.569L50 52.335h-0.004l-5.296 0.471-4.577 1.558-0.71-9.352-1.092-0.539-6.795-2.514-6.088 8.327-2.868 2.835 0.28 8.71 4.409 4.06 5.871-0.095v5.929l3.282 8.75-4.453-1.558-15.054-8.891-5.34-19.302 4.655-12.83 14.327-22.945 6.577-3.358L50 8.722V7.024L36.352 9.567l-7.226 3.309-0.048 0.079-11.489-7.886-7.196 4.563-2.868 8.676 1.4 9.867 5.802 8.484-5.278 13.522L14.243 71.7l35.664 23.112v0.119L50 94.87l0.092 0.061v-0.119L85.757 71.7l4.793-21.519-5.279-13.521 5.804-8.484 1.4-9.868zM50 86.662l-5.942-1.35-5.723-5.983 3.933 1.816 5.36-0.243L50 79.499v-8.814l-5.263 0.033-2.855 0.647-2.518-2.31 2.518 5.354 7.515 1.466v1.997l-7.165 1.768-4.131-0.558-0.061-0.063-3.086-7.602-0.21-5.197 5.162-10.24 4.756-2.347 5.337-0.769 0.001-0.062v0.064l5.724 0.735 4.368 2.38 5.162 10.24-0.21 5.197-3.086 7.602-0.061 0.063-4.131 0.558-7.164-1.768v-1.997l7.514-1.466 2.52-5.354-2.52 2.31-2.854-0.647L50 70.686V79.5l2.37 1.403 5.361 0.243 3.932-1.816-5.722 5.983L50 86.662z" fill="#ffffff"/>
</svg>
