<?xml version="1.0" encoding="UTF-8"?>
<!DOCTYPE svg PUBLIC "-//W3C//DTD SVG 1.1//EN" "http://www.w3.org/Graphics/SVG/1.1/DTD/svg11.dtd">
<svg xmlns="http://www.w3.org/2000/svg" version="1.1" width="1169px" height="536px" style="shape-rendering:geometricPrecision; text-rendering:geometricPrecision; image-rendering:optimizeQuality; fill-rule:evenodd; clip-rule:evenodd" xmlns:xlink="http://www.w3.org/1999/xlink">
<g><path style="opacity:0.993" fill="#49eacb" d="M 237.5,115.5 C 290.243,109.473 336.077,124.14 375,159.5C 404.725,191.969 419.725,230.302 420,274.5C 413.289,315.76 395.122,350.927 365.5,380C 317.978,420.371 264.978,429.704 206.5,408C 200.843,405.507 195.51,402.507 190.5,399C 172.721,381.221 154.887,363.387 137,345.5C 125.464,331.242 118.798,314.909 117,296.5C 115.876,278.352 115.043,260.185 114.5,242C 113.798,225.033 117.631,209.2 126,194.5C 144.167,171 165,150.167 188.5,132C 203.628,122.569 219.961,117.069 237.5,115.5 Z"/></g>
<g><path style="opacity:1" fill="#fefefe" d="M 300.5,179.5 C 303.394,179.042 305.894,179.709 308,181.5C 311.887,209.71 316.054,237.876 320.5,266C 316.025,294.822 311.692,323.656 307.5,352.5C 296.817,351.297 286.15,349.963 275.5,348.5C 277.797,329.295 280.463,310.128 283.5,291C 283.167,289.833 282.833,288.667 282.5,287.5C 260.577,304.045 238.743,320.712 217,337.5C 210.374,329.072 203.874,320.572 197.5,312C 216.737,296.694 236.071,281.36 255.5,266C 236.785,250.951 217.785,236.284 198.5,222C 197.483,220.951 197.316,219.784 198,218.5C 204.333,210.5 210.667,202.5 217,194.5C 239.257,211.379 261.423,228.379 283.5,245.5C 283.833,245 284.167,244.5 284.5,244C 281.047,223.9 278.047,203.733 275.5,183.5C 284.08,182.89 292.414,181.557 300.5,179.5 Z"/></g>
<g><path style="opacity:0.971" fill="#191a19" d="M 512.5,191.5 C 523.082,191.18 533.582,191.513 544,192.5C 544.333,207.833 544.667,223.167 545,238.5C 560.529,222.638 576.362,207.138 592.5,192C 605.829,191.5 619.163,191.333 632.5,191.5C 632.66,193.199 632.494,194.866 632,196.5C 607.528,219.972 583.361,243.805 559.5,268C 583.333,291.167 607.167,314.333 631,337.5C 632.582,339.624 632.749,341.79 631.5,344C 625.167,344.167 618.833,344.333 612.5,344.5C 605.399,344.631 598.399,344.131 591.5,343C 575.695,328.196 560.195,313.029 545,297.5C 544.833,312.844 544.333,328.178 543.5,343.5C 533.547,344.641 523.547,344.808 513.5,344C 513,343.5 512.5,343 512,342.5C 511.172,292.096 511.338,241.763 512.5,191.5 Z"/></g>
<g><path style="opacity:0.963" fill="#191a19" d="M 670.5,239.5 C 680.566,239.105 690.566,239.605 700.5,241C 717.068,245.948 725.568,257.115 726,274.5C 726.667,296.833 726.667,319.167 726,341.5C 725.626,342.416 725.126,343.25 724.5,344C 716.5,344.667 708.5,344.667 700.5,344C 699.107,342.829 698.273,341.329 698,339.5C 682.91,347.76 667.41,348.593 651.5,342C 636.818,331.286 632.984,317.453 640,300.5C 645.142,293.371 651.975,288.538 660.5,286C 671.933,282.65 683.6,280.817 695.5,280.5C 697.032,270.699 693.032,264.865 683.5,263C 672.665,262.542 662.665,265.209 653.5,271C 651.559,271.743 649.726,271.576 648,270.5C 646,266.5 644,262.5 642,258.5C 640.85,256.246 640.516,253.913 641,251.5C 650.125,245.628 659.959,241.628 670.5,239.5 Z M 684.5,301.5 C 688.167,301.5 691.833,301.5 695.5,301.5C 695.666,307.509 695.499,313.509 695,319.5C 685.92,324.735 676.92,324.735 668,319.5C 664.611,314.306 665.445,309.806 670.5,306C 675.127,303.956 679.794,302.456 684.5,301.5 Z"/></g>
<g><path style="opacity:0.964" fill="#191a19" d="M 775.5,239.5 C 786.549,239.15 797.549,239.65 808.5,241C 813.828,242.163 818.828,244.163 823.5,247C 824.804,247.804 825.471,248.971 825.5,250.5C 822.823,257.355 819.49,263.855 815.5,270C 811.203,269.866 807.203,268.533 803.5,266C 796.574,263.339 789.574,263.006 782.5,265C 778.356,268.979 778.69,272.645 783.5,276C 794.532,279.897 805.199,284.564 815.5,290C 825.05,298.014 828.55,308.18 826,320.5C 820.63,335.788 809.797,344.288 793.5,346C 776.963,348.188 761.296,345.522 746.5,338C 745.196,337.196 744.529,336.029 744.5,334.5C 747.224,328.051 750.224,321.717 753.5,315.5C 754.328,314.585 755.328,313.919 756.5,313.5C 762.83,317.166 769.497,319.999 776.5,322C 780.5,322.667 784.5,322.667 788.5,322C 795.509,318.622 796.176,314.288 790.5,309C 779.297,304.38 768.297,299.38 757.5,294C 747.95,284.967 744.783,274.133 748,261.5C 750.285,253.549 755.119,247.715 762.5,244C 766.893,242.329 771.226,240.829 775.5,239.5 Z"/></g>
<g><path style="opacity:0.979" fill="#191a19" d="M 866.5,239.5 C 878.171,239.333 889.838,239.5 901.5,240C 937.517,247.712 952.684,269.879 947,306.5C 941.434,329.395 926.934,342.562 903.5,346C 894.811,346.673 886.144,346.507 877.5,345.5C 877.667,362.17 877.5,378.837 877,395.5C 867.333,396.833 857.667,396.833 848,395.5C 847.333,345.167 847.333,294.833 848,244.5C 848.5,244 849,243.5 849.5,243C 855.265,241.614 860.931,240.448 866.5,239.5 Z M 878.5,264.5 C 906.945,260.78 919.778,273.113 917,301.5C 914.386,312.448 907.552,318.948 896.5,321C 890.366,321.9 884.366,321.4 878.5,319.5C 877.181,301.102 877.181,282.769 878.5,264.5 Z"/></g>
<g><path style="opacity:0.969" fill="#191a19" d="M 997.5,239.5 C 1007.56,239.135 1017.56,239.635 1027.5,241C 1041.54,244.892 1049.7,254.058 1052,268.5C 1052.67,293.167 1052.67,317.833 1052,342.5C 1051.5,343 1051,343.5 1050.5,344C 1042.5,344.667 1034.5,344.667 1026.5,344C 1025.91,342.491 1025.24,340.991 1024.5,339.5C 1013.7,345.959 1002.03,348.126 989.5,346C 969.467,340.944 960.967,328.111 964,307.5C 965.615,301.116 969.115,295.949 974.5,292C 989.541,284.291 1005.54,280.457 1022.5,280.5C 1023.13,269.136 1017.8,263.136 1006.5,262.5C 996.893,263.425 987.893,266.258 979.5,271C 977.741,271.798 976.074,271.631 974.5,270.5C 971.56,264.954 968.894,259.287 966.5,253.5C 968.861,249.808 972.194,247.308 976.5,246C 983.472,243.347 990.472,241.18 997.5,239.5 Z M 1010.5,301.5 C 1014.5,301.5 1018.5,301.5 1022.5,301.5C 1022.67,307.509 1022.5,313.509 1022,319.5C 1013.74,324.119 1005.24,324.619 996.5,321C 991.657,316.62 991.323,311.954 995.5,307C 1000.34,304.386 1005.34,302.553 1010.5,301.5 Z"/></g>
</svg>
